<mxfile host="app.diagrams.net" agent="Mozilla/5.0 (Windows NT 10.0; Win64; x64) AppleWebKit/537.36 (KHTML, like Gecko) Chrome/131.0.0.0 Safari/537.36 OPR/116.0.0.0 (Edition std-2)" version="26.0.16">
  <diagram name="PÃ¡gina-1" id="oCxcNuXTHGfQ41heQ6Uo">
    <mxGraphModel dx="1050" dy="539" grid="1" gridSize="10" guides="1" tooltips="1" connect="1" arrows="1" fold="1" page="1" pageScale="1" pageWidth="827" pageHeight="1169" math="0" shadow="0">
      <root>
        <mxCell id="0" />
        <mxCell id="1" parent="0" />
        <mxCell id="wo00SAC7TLRUHoAw2mzR-4" value="" style="edgeStyle=orthogonalEdgeStyle;rounded=0;orthogonalLoop=1;jettySize=auto;html=1;" edge="1" parent="1" source="wo00SAC7TLRUHoAw2mzR-1" target="wo00SAC7TLRUHoAw2mzR-2">
          <mxGeometry relative="1" as="geometry" />
        </mxCell>
        <mxCell id="wo00SAC7TLRUHoAw2mzR-1" value="Inicio" style="ellipse;whiteSpace=wrap;html=1;" vertex="1" parent="1">
          <mxGeometry x="350" y="100" width="120" height="50" as="geometry" />
        </mxCell>
        <mxCell id="wo00SAC7TLRUHoAw2mzR-6" value="" style="edgeStyle=orthogonalEdgeStyle;rounded=0;orthogonalLoop=1;jettySize=auto;html=1;" edge="1" parent="1" source="wo00SAC7TLRUHoAw2mzR-2" target="wo00SAC7TLRUHoAw2mzR-3">
          <mxGeometry relative="1" as="geometry" />
        </mxCell>
        <mxCell id="wo00SAC7TLRUHoAw2mzR-2" value="ValFin, Desc, Prec" style="rounded=0;whiteSpace=wrap;html=1;" vertex="1" parent="1">
          <mxGeometry x="350" y="190" width="120" height="60" as="geometry" />
        </mxCell>
        <mxCell id="wo00SAC7TLRUHoAw2mzR-8" value="" style="edgeStyle=orthogonalEdgeStyle;rounded=0;orthogonalLoop=1;jettySize=auto;html=1;" edge="1" parent="1" source="wo00SAC7TLRUHoAw2mzR-3" target="wo00SAC7TLRUHoAw2mzR-7">
          <mxGeometry relative="1" as="geometry" />
        </mxCell>
        <mxCell id="wo00SAC7TLRUHoAw2mzR-3" value="ValFin = Prec - Desc" style="rounded=0;whiteSpace=wrap;html=1;" vertex="1" parent="1">
          <mxGeometry x="350" y="290" width="120" height="60" as="geometry" />
        </mxCell>
        <mxCell id="wo00SAC7TLRUHoAw2mzR-7" value="Fim" style="ellipse;whiteSpace=wrap;html=1;" vertex="1" parent="1">
          <mxGeometry x="350" y="400" width="120" height="80" as="geometry" />
        </mxCell>
      </root>
    </mxGraphModel>
  </diagram>
</mxfile>
